<svg width="32" height="32" viewBox="0 0 32 32" fill="none" xmlns="http://www.w3.org/2000/svg">
<path fill-rule="evenodd" clip-rule="evenodd" d="M18.416 24.692C17.446 26.692 16.51 27 16 27C15.49 27 14.554 26.692 13.584 24.692C12.84 23.156 12.29 20.976 12.086 18.318C14.6896 18.5617 17.3104 18.5617 19.914 18.318C19.71 20.976 19.16 23.156 18.414 24.692M19.99 15.294C18.716 15.428 17.38 15.5 16 15.5C14.62 15.5 13.284 15.428 12.008 15.294C12.082 11.902 12.694 9.144 13.584 7.308C14.554 5.308 15.49 5 16 5C16.51 5 17.446 5.308 18.416 7.308C19.306 9.144 19.916 11.902 19.992 15.294M22.948 17.906C22.778 20.938 22.198 23.602 21.276 25.654C22.8711 24.7823 24.2254 23.5288 25.2176 22.0057C26.2099 20.4826 26.8092 18.7374 26.962 16.926C25.72 17.324 24.372 17.654 22.948 17.906ZM26.784 13.82C25.64 14.228 24.364 14.578 22.982 14.848C22.87 11.506 22.274 8.568 21.276 6.346C22.6834 7.11494 23.9057 8.18234 24.8572 9.47341C25.8086 10.7645 26.4663 12.248 26.784 13.82ZM9.018 14.848C9.13 11.506 9.726 8.568 10.724 6.346C9.31656 7.11494 8.09429 8.18234 7.14283 9.47341C6.19137 10.7645 5.53373 12.248 5.216 13.82C6.36 14.228 7.636 14.578 9.018 14.848ZM5.04 16.926C5.1928 18.7374 5.79212 20.4826 6.78437 22.0057C7.77662 23.5288 9.13086 24.7823 10.726 25.654C9.806 23.602 9.226 20.938 9.054 17.906C7.69569 17.669 6.35472 17.3416 5.04 16.926ZM30 16C30 12.287 28.525 8.72601 25.8995 6.1005C23.274 3.475 19.713 2 16 2C12.287 2 8.72601 3.475 6.1005 6.1005C3.475 8.72601 2 12.287 2 16C2 19.713 3.475 23.274 6.1005 25.8995C8.72601 28.525 12.287 30 16 30C19.713 30 23.274 28.525 25.8995 25.8995C28.525 23.274 30 19.713 30 16Z" fill="#2274A5"/>
</svg>
