<svg width="32" height="32" viewBox="0 0 32 32" fill="none" xmlns="http://www.w3.org/2000/svg">
<path d="M16.3253 5.33337C17.0373 5.33737 18.8186 5.35471 20.712 5.43071L21.384 5.46004C23.2893 5.54937 25.1933 5.70404 26.1386 5.96671C27.3986 6.32137 28.388 7.35337 28.7226 8.66271C29.256 10.7427 29.3226 14.7987 29.3306 15.7814L29.332 15.984V16.216C29.3226 17.1987 29.256 21.256 28.7226 23.3347C28.384 24.648 27.3933 25.6814 26.1386 26.0307C25.1933 26.2934 23.2893 26.448 21.384 26.5374L20.712 26.568C18.8186 26.6427 17.0373 26.6614 16.3253 26.664L16.012 26.6654H15.672C14.1653 26.656 7.86396 26.588 5.85863 26.0307C4.59996 25.676 3.60929 24.644 3.27463 23.3347C2.74129 21.2547 2.67463 17.1987 2.66663 16.216V15.7814C2.67463 14.7987 2.74129 10.7414 3.27463 8.66271C3.61329 7.34937 4.60396 6.31604 5.85996 5.96804C7.86396 5.40937 14.1666 5.34137 15.6733 5.33337H16.3253ZM13.332 11.3334V20.6667L21.332 16L13.332 11.3334Z" fill="#2274A5"/>
</svg>
